<mxfile host="app.diagrams.net" modified="2023-09-26T15:51:00.968Z" agent="Mozilla/5.0 (Windows NT 10.0; Win64; x64) AppleWebKit/537.36 (KHTML, like Gecko) Chrome/116.0.0.0 Safari/537.36" etag="_CDJn0Kazo3aGofMavJT" version="21.8.2" type="device">
  <diagram id="8nDw8WheMSkE5KyfTFeU" name="Page-1">
    <mxGraphModel dx="1020" dy="211" grid="1" gridSize="10" guides="1" tooltips="1" connect="1" arrows="1" fold="1" page="1" pageScale="1" pageWidth="827" pageHeight="1169" math="0" shadow="0">
      <root>
        <mxCell id="0" />
        <mxCell id="1" parent="0" />
        <mxCell id="HWUxS8e8iwOzTYImD1xA-25" value="" style="group" vertex="1" connectable="0" parent="1">
          <mxGeometry x="-740" y="40" width="580" height="180" as="geometry" />
        </mxCell>
        <mxCell id="VO6tGdwxOZ5J0H8WTw2k-1" value="ĐƠN VỊ&lt;br&gt;" style="rounded=0;whiteSpace=wrap;html=1;" parent="HWUxS8e8iwOzTYImD1xA-25" vertex="1">
          <mxGeometry x="200" y="120" width="120" height="60" as="geometry" />
        </mxCell>
        <mxCell id="VO6tGdwxOZ5J0H8WTw2k-3" value="TÊN ĐƠN VỊ" style="ellipse;whiteSpace=wrap;html=1;" parent="HWUxS8e8iwOzTYImD1xA-25" vertex="1">
          <mxGeometry x="150" width="120" height="80" as="geometry" />
        </mxCell>
        <mxCell id="VO6tGdwxOZ5J0H8WTw2k-4" value="SĐT ĐƠN VỊ" style="ellipse;whiteSpace=wrap;html=1;" parent="HWUxS8e8iwOzTYImD1xA-25" vertex="1">
          <mxGeometry x="304" width="120" height="80" as="geometry" />
        </mxCell>
        <mxCell id="VO6tGdwxOZ5J0H8WTw2k-5" value="ĐỊA CHỈ ĐƠN VỊ" style="ellipse;whiteSpace=wrap;html=1;" parent="HWUxS8e8iwOzTYImD1xA-25" vertex="1">
          <mxGeometry x="460" y="10" width="120" height="80" as="geometry" />
        </mxCell>
        <mxCell id="VO6tGdwxOZ5J0H8WTw2k-6" value="" style="endArrow=none;html=1;rounded=0;entryX=0.5;entryY=1;entryDx=0;entryDy=0;exitX=0.5;exitY=0;exitDx=0;exitDy=0;" parent="HWUxS8e8iwOzTYImD1xA-25" source="VO6tGdwxOZ5J0H8WTw2k-1" edge="1">
          <mxGeometry width="50" height="50" relative="1" as="geometry">
            <mxPoint x="20" y="150" as="sourcePoint" />
            <mxPoint x="50" y="80" as="targetPoint" />
          </mxGeometry>
        </mxCell>
        <mxCell id="VO6tGdwxOZ5J0H8WTw2k-7" value="" style="endArrow=none;html=1;rounded=0;entryX=0.5;entryY=1;entryDx=0;entryDy=0;exitX=0.5;exitY=0;exitDx=0;exitDy=0;" parent="HWUxS8e8iwOzTYImD1xA-25" source="VO6tGdwxOZ5J0H8WTw2k-1" target="VO6tGdwxOZ5J0H8WTw2k-5" edge="1">
          <mxGeometry width="50" height="50" relative="1" as="geometry">
            <mxPoint x="410" y="160" as="sourcePoint" />
            <mxPoint x="460" y="110" as="targetPoint" />
          </mxGeometry>
        </mxCell>
        <mxCell id="VO6tGdwxOZ5J0H8WTw2k-8" value="" style="endArrow=none;html=1;rounded=0;entryX=0.5;entryY=1;entryDx=0;entryDy=0;exitX=0.5;exitY=0;exitDx=0;exitDy=0;" parent="HWUxS8e8iwOzTYImD1xA-25" source="VO6tGdwxOZ5J0H8WTw2k-1" target="VO6tGdwxOZ5J0H8WTw2k-4" edge="1">
          <mxGeometry width="50" height="50" relative="1" as="geometry">
            <mxPoint x="250" y="110" as="sourcePoint" />
            <mxPoint x="300" y="60" as="targetPoint" />
          </mxGeometry>
        </mxCell>
        <mxCell id="VO6tGdwxOZ5J0H8WTw2k-9" value="" style="endArrow=none;html=1;rounded=0;entryX=0.5;entryY=1;entryDx=0;entryDy=0;exitX=0.5;exitY=0;exitDx=0;exitDy=0;" parent="HWUxS8e8iwOzTYImD1xA-25" source="VO6tGdwxOZ5J0H8WTw2k-1" target="VO6tGdwxOZ5J0H8WTw2k-3" edge="1">
          <mxGeometry width="50" height="50" relative="1" as="geometry">
            <mxPoint x="240" y="120" as="sourcePoint" />
            <mxPoint x="290" y="70" as="targetPoint" />
          </mxGeometry>
        </mxCell>
        <mxCell id="VO6tGdwxOZ5J0H8WTw2k-10" value="MÃ ĐƠN VỊ" style="ellipse;whiteSpace=wrap;html=1;align=center;fontStyle=4;" parent="HWUxS8e8iwOzTYImD1xA-25" vertex="1">
          <mxGeometry width="120" height="80" as="geometry" />
        </mxCell>
        <mxCell id="HWUxS8e8iwOzTYImD1xA-27" value="" style="group" vertex="1" connectable="0" parent="1">
          <mxGeometry x="-810" y="350" width="756" height="270" as="geometry" />
        </mxCell>
        <mxCell id="VO6tGdwxOZ5J0H8WTw2k-11" value="NHÂN VIÊN" style="rounded=0;whiteSpace=wrap;html=1;" parent="HWUxS8e8iwOzTYImD1xA-27" vertex="1">
          <mxGeometry x="270" y="160" width="120" height="60" as="geometry" />
        </mxCell>
        <mxCell id="VO6tGdwxOZ5J0H8WTw2k-13" value="TÊN NV" style="ellipse;whiteSpace=wrap;html=1;" parent="HWUxS8e8iwOzTYImD1xA-27" vertex="1">
          <mxGeometry x="10" y="195" width="120" height="80" as="geometry" />
        </mxCell>
        <mxCell id="VO6tGdwxOZ5J0H8WTw2k-14" value="ĐỊA CHỈ NHÂN VIÊN" style="ellipse;whiteSpace=wrap;html=1;" parent="HWUxS8e8iwOzTYImD1xA-27" vertex="1">
          <mxGeometry x="20" y="20" width="120" height="80" as="geometry" />
        </mxCell>
        <mxCell id="VO6tGdwxOZ5J0H8WTw2k-16" value="GIỚI TÍNH" style="ellipse;whiteSpace=wrap;html=1;" parent="HWUxS8e8iwOzTYImD1xA-27" vertex="1">
          <mxGeometry x="10" y="110" width="120" height="80" as="geometry" />
        </mxCell>
        <mxCell id="VO6tGdwxOZ5J0H8WTw2k-17" value="" style="endArrow=none;html=1;rounded=0;entryX=1;entryY=0.5;entryDx=0;entryDy=0;exitX=0;exitY=0.5;exitDx=0;exitDy=0;" parent="HWUxS8e8iwOzTYImD1xA-27" source="VO6tGdwxOZ5J0H8WTw2k-11" target="VO6tGdwxOZ5J0H8WTw2k-13" edge="1">
          <mxGeometry width="50" height="50" relative="1" as="geometry">
            <mxPoint x="260" y="250" as="sourcePoint" />
            <mxPoint x="210" y="110" as="targetPoint" />
          </mxGeometry>
        </mxCell>
        <mxCell id="VO6tGdwxOZ5J0H8WTw2k-19" value="" style="endArrow=none;html=1;rounded=0;entryX=1;entryY=0.5;entryDx=0;entryDy=0;exitX=0;exitY=0.5;exitDx=0;exitDy=0;" parent="HWUxS8e8iwOzTYImD1xA-27" source="VO6tGdwxOZ5J0H8WTw2k-11" target="VO6tGdwxOZ5J0H8WTw2k-16" edge="1">
          <mxGeometry width="50" height="50" relative="1" as="geometry">
            <mxPoint x="280" y="160" as="sourcePoint" />
            <mxPoint x="330" y="110" as="targetPoint" />
          </mxGeometry>
        </mxCell>
        <mxCell id="VO6tGdwxOZ5J0H8WTw2k-20" value="" style="endArrow=none;html=1;rounded=0;entryX=1;entryY=1;entryDx=0;entryDy=0;exitX=0;exitY=0.5;exitDx=0;exitDy=0;" parent="HWUxS8e8iwOzTYImD1xA-27" source="VO6tGdwxOZ5J0H8WTw2k-11" target="VO6tGdwxOZ5J0H8WTw2k-14" edge="1">
          <mxGeometry width="50" height="50" relative="1" as="geometry">
            <mxPoint x="390" y="170" as="sourcePoint" />
            <mxPoint x="440" y="120" as="targetPoint" />
          </mxGeometry>
        </mxCell>
        <mxCell id="HWUxS8e8iwOzTYImD1xA-26" value="THUÊ" style="rhombus;whiteSpace=wrap;html=1;" vertex="1" parent="HWUxS8e8iwOzTYImD1xA-27">
          <mxGeometry x="290" y="-40" width="80" height="80" as="geometry" />
        </mxCell>
        <mxCell id="VO6tGdwxOZ5J0H8WTw2k-15" value="SĐT" style="ellipse;whiteSpace=wrap;html=1;" parent="HWUxS8e8iwOzTYImD1xA-27" vertex="1">
          <mxGeometry x="150" y="10" width="120" height="80" as="geometry" />
        </mxCell>
        <mxCell id="VO6tGdwxOZ5J0H8WTw2k-21" value="" style="endArrow=none;html=1;rounded=0;entryX=0.5;entryY=1;entryDx=0;entryDy=0;exitX=0;exitY=0.5;exitDx=0;exitDy=0;" parent="HWUxS8e8iwOzTYImD1xA-27" source="VO6tGdwxOZ5J0H8WTw2k-11" target="VO6tGdwxOZ5J0H8WTw2k-15" edge="1">
          <mxGeometry width="50" height="50" relative="1" as="geometry">
            <mxPoint x="360" y="220" as="sourcePoint" />
            <mxPoint x="560" y="240" as="targetPoint" />
          </mxGeometry>
        </mxCell>
        <mxCell id="HWUxS8e8iwOzTYImD1xA-30" value="" style="endArrow=none;html=1;rounded=0;entryX=0.5;entryY=1;entryDx=0;entryDy=0;exitX=0.5;exitY=0;exitDx=0;exitDy=0;" edge="1" parent="HWUxS8e8iwOzTYImD1xA-27" source="VO6tGdwxOZ5J0H8WTw2k-11" target="HWUxS8e8iwOzTYImD1xA-26">
          <mxGeometry width="50" height="50" relative="1" as="geometry">
            <mxPoint x="300" y="120" as="sourcePoint" />
            <mxPoint x="350" y="70" as="targetPoint" />
          </mxGeometry>
        </mxCell>
        <mxCell id="HWUxS8e8iwOzTYImD1xA-31" value="" style="endArrow=none;html=1;rounded=0;exitX=0.532;exitY=-0.003;exitDx=0;exitDy=0;exitPerimeter=0;entryX=0.54;entryY=0.962;entryDx=0;entryDy=0;entryPerimeter=0;" edge="1" parent="HWUxS8e8iwOzTYImD1xA-27" source="VO6tGdwxOZ5J0H8WTw2k-11" target="HWUxS8e8iwOzTYImD1xA-26">
          <mxGeometry width="50" height="50" relative="1" as="geometry">
            <mxPoint x="350" y="100" as="sourcePoint" />
            <mxPoint x="334" y="40" as="targetPoint" />
          </mxGeometry>
        </mxCell>
        <mxCell id="HWUxS8e8iwOzTYImD1xA-33" value="N" style="text;html=1;align=center;verticalAlign=middle;resizable=0;points=[];autosize=1;strokeColor=none;fillColor=none;" vertex="1" parent="HWUxS8e8iwOzTYImD1xA-27">
          <mxGeometry x="300" y="130" width="30" height="30" as="geometry" />
        </mxCell>
        <mxCell id="HWUxS8e8iwOzTYImD1xA-38" value="1" style="text;html=1;align=center;verticalAlign=middle;resizable=0;points=[];autosize=1;strokeColor=none;fillColor=none;" vertex="1" parent="HWUxS8e8iwOzTYImD1xA-27">
          <mxGeometry x="340" y="135" width="30" height="30" as="geometry" />
        </mxCell>
        <mxCell id="HWUxS8e8iwOzTYImD1xA-39" value="" style="group" vertex="1" connectable="0" parent="HWUxS8e8iwOzTYImD1xA-27">
          <mxGeometry x="610" y="60" width="316" height="170" as="geometry" />
        </mxCell>
        <mxCell id="VO6tGdwxOZ5J0H8WTw2k-23" value="DỰ ÁN" style="rounded=0;whiteSpace=wrap;html=1;" parent="HWUxS8e8iwOzTYImD1xA-39" vertex="1">
          <mxGeometry x="120" y="100" width="120" height="60" as="geometry" />
        </mxCell>
        <mxCell id="VO6tGdwxOZ5J0H8WTw2k-25" value="MÃ DỰ ÁN" style="ellipse;whiteSpace=wrap;html=1;align=center;fontStyle=4;" parent="HWUxS8e8iwOzTYImD1xA-39" vertex="1">
          <mxGeometry x="60" width="116" height="80" as="geometry" />
        </mxCell>
        <mxCell id="VO6tGdwxOZ5J0H8WTw2k-26" value="TÊN DỰ ÁN" style="ellipse;whiteSpace=wrap;html=1;" parent="HWUxS8e8iwOzTYImD1xA-39" vertex="1">
          <mxGeometry x="196" width="120" height="80" as="geometry" />
        </mxCell>
        <mxCell id="HWUxS8e8iwOzTYImD1xA-1" value="" style="endArrow=none;html=1;rounded=0;entryX=0.5;entryY=1;entryDx=0;entryDy=0;exitX=0.5;exitY=0;exitDx=0;exitDy=0;" edge="1" parent="HWUxS8e8iwOzTYImD1xA-39" source="VO6tGdwxOZ5J0H8WTw2k-23" target="VO6tGdwxOZ5J0H8WTw2k-25">
          <mxGeometry width="50" height="50" relative="1" as="geometry">
            <mxPoint x="16" y="140" as="sourcePoint" />
            <mxPoint x="66" y="90" as="targetPoint" />
          </mxGeometry>
        </mxCell>
        <mxCell id="HWUxS8e8iwOzTYImD1xA-2" value="" style="endArrow=none;html=1;rounded=0;entryX=0.5;entryY=1;entryDx=0;entryDy=0;exitX=0.5;exitY=0;exitDx=0;exitDy=0;" edge="1" parent="HWUxS8e8iwOzTYImD1xA-39" source="VO6tGdwxOZ5J0H8WTw2k-23" target="VO6tGdwxOZ5J0H8WTw2k-26">
          <mxGeometry width="50" height="50" relative="1" as="geometry">
            <mxPoint x="136" y="80" as="sourcePoint" />
            <mxPoint x="186" y="30" as="targetPoint" />
          </mxGeometry>
        </mxCell>
        <mxCell id="HWUxS8e8iwOzTYImD1xA-40" value="LÀM VIỆC" style="rhombus;whiteSpace=wrap;html=1;" vertex="1" parent="HWUxS8e8iwOzTYImD1xA-27">
          <mxGeometry x="520" y="150" width="80" height="80" as="geometry" />
        </mxCell>
        <mxCell id="HWUxS8e8iwOzTYImD1xA-41" value="" style="endArrow=none;html=1;rounded=0;entryX=0;entryY=0.5;entryDx=0;entryDy=0;exitX=1;exitY=0.5;exitDx=0;exitDy=0;" edge="1" parent="HWUxS8e8iwOzTYImD1xA-27" source="VO6tGdwxOZ5J0H8WTw2k-11" target="HWUxS8e8iwOzTYImD1xA-40">
          <mxGeometry width="50" height="50" relative="1" as="geometry">
            <mxPoint x="430" y="240" as="sourcePoint" />
            <mxPoint x="480" y="190" as="targetPoint" />
          </mxGeometry>
        </mxCell>
        <mxCell id="HWUxS8e8iwOzTYImD1xA-42" value="" style="endArrow=none;html=1;rounded=0;entryX=0;entryY=0.5;entryDx=0;entryDy=0;exitX=1;exitY=0.5;exitDx=0;exitDy=0;" edge="1" parent="HWUxS8e8iwOzTYImD1xA-27" source="HWUxS8e8iwOzTYImD1xA-40" target="VO6tGdwxOZ5J0H8WTw2k-23">
          <mxGeometry width="50" height="50" relative="1" as="geometry">
            <mxPoint x="590" y="210" as="sourcePoint" />
            <mxPoint x="670" y="220" as="targetPoint" />
          </mxGeometry>
        </mxCell>
        <mxCell id="HWUxS8e8iwOzTYImD1xA-43" value="N" style="text;html=1;align=center;verticalAlign=middle;resizable=0;points=[];autosize=1;strokeColor=none;fillColor=none;" vertex="1" parent="HWUxS8e8iwOzTYImD1xA-27">
          <mxGeometry x="382" y="165" width="30" height="30" as="geometry" />
        </mxCell>
        <mxCell id="HWUxS8e8iwOzTYImD1xA-71" value="" style="endArrow=none;html=1;rounded=0;exitX=1.004;exitY=0.545;exitDx=0;exitDy=0;exitPerimeter=0;entryX=0.03;entryY=0.535;entryDx=0;entryDy=0;entryPerimeter=0;" edge="1" parent="HWUxS8e8iwOzTYImD1xA-27" source="VO6tGdwxOZ5J0H8WTw2k-11" target="HWUxS8e8iwOzTYImD1xA-40">
          <mxGeometry width="50" height="50" relative="1" as="geometry">
            <mxPoint x="400" y="200" as="sourcePoint" />
            <mxPoint x="470" y="210" as="targetPoint" />
          </mxGeometry>
        </mxCell>
        <mxCell id="VO6tGdwxOZ5J0H8WTw2k-24" value="MÃ NV" style="ellipse;whiteSpace=wrap;html=1;align=center;fontStyle=4;" parent="1" vertex="1">
          <mxGeometry x="-800" y="640" width="130" height="80" as="geometry" />
        </mxCell>
        <mxCell id="VO6tGdwxOZ5J0H8WTw2k-18" value="" style="endArrow=none;html=1;rounded=0;entryX=1;entryY=0.5;entryDx=0;entryDy=0;exitX=0;exitY=0.5;exitDx=0;exitDy=0;" parent="1" source="VO6tGdwxOZ5J0H8WTw2k-11" target="VO6tGdwxOZ5J0H8WTw2k-24" edge="1">
          <mxGeometry width="50" height="50" relative="1" as="geometry">
            <mxPoint x="-730" y="620" as="sourcePoint" />
            <mxPoint x="-700" y="550" as="targetPoint" />
          </mxGeometry>
        </mxCell>
        <mxCell id="HWUxS8e8iwOzTYImD1xA-29" value="" style="endArrow=none;html=1;rounded=0;entryX=0.5;entryY=1;entryDx=0;entryDy=0;exitX=0.5;exitY=0;exitDx=0;exitDy=0;" edge="1" parent="1" source="HWUxS8e8iwOzTYImD1xA-26" target="VO6tGdwxOZ5J0H8WTw2k-1">
          <mxGeometry width="50" height="50" relative="1" as="geometry">
            <mxPoint x="-550" y="300" as="sourcePoint" />
            <mxPoint x="-500" y="250" as="targetPoint" />
          </mxGeometry>
        </mxCell>
        <mxCell id="HWUxS8e8iwOzTYImD1xA-32" value="1" style="text;html=1;align=center;verticalAlign=middle;resizable=0;points=[];autosize=1;strokeColor=none;fillColor=none;" vertex="1" parent="1">
          <mxGeometry x="-530" y="220" width="30" height="30" as="geometry" />
        </mxCell>
        <mxCell id="HWUxS8e8iwOzTYImD1xA-34" value="QUẢN LÝ" style="rhombus;whiteSpace=wrap;html=1;" vertex="1" parent="1">
          <mxGeometry x="-390" y="310" width="80" height="80" as="geometry" />
        </mxCell>
        <mxCell id="HWUxS8e8iwOzTYImD1xA-35" value="" style="endArrow=none;html=1;rounded=0;entryX=0.55;entryY=1.009;entryDx=0;entryDy=0;exitX=0.5;exitY=0;exitDx=0;exitDy=0;entryPerimeter=0;" edge="1" parent="1" source="HWUxS8e8iwOzTYImD1xA-34" target="VO6tGdwxOZ5J0H8WTw2k-1">
          <mxGeometry width="50" height="50" relative="1" as="geometry">
            <mxPoint x="-400" y="280" as="sourcePoint" />
            <mxPoint x="-440" y="235" as="targetPoint" />
          </mxGeometry>
        </mxCell>
        <mxCell id="HWUxS8e8iwOzTYImD1xA-36" value="" style="endArrow=none;html=1;rounded=0;exitX=0.5;exitY=0;exitDx=0;exitDy=0;entryX=0.5;entryY=1;entryDx=0;entryDy=0;" edge="1" parent="1" source="VO6tGdwxOZ5J0H8WTw2k-11" target="HWUxS8e8iwOzTYImD1xA-34">
          <mxGeometry width="50" height="50" relative="1" as="geometry">
            <mxPoint x="-400" y="460" as="sourcePoint" />
            <mxPoint x="-350" y="410" as="targetPoint" />
          </mxGeometry>
        </mxCell>
        <mxCell id="HWUxS8e8iwOzTYImD1xA-37" value="1" style="text;html=1;align=center;verticalAlign=middle;resizable=0;points=[];autosize=1;strokeColor=none;fillColor=none;" vertex="1" parent="1">
          <mxGeometry x="-455" y="218" width="30" height="30" as="geometry" />
        </mxCell>
        <mxCell id="HWUxS8e8iwOzTYImD1xA-44" value="1" style="text;html=1;align=center;verticalAlign=middle;resizable=0;points=[];autosize=1;strokeColor=none;fillColor=none;" vertex="1" parent="1">
          <mxGeometry x="-105" y="518" width="30" height="30" as="geometry" />
        </mxCell>
        <mxCell id="HWUxS8e8iwOzTYImD1xA-45" value="PHỤC VỤ" style="rhombus;whiteSpace=wrap;html=1;" vertex="1" parent="1">
          <mxGeometry x="-520" y="670" width="80" height="80" as="geometry" />
        </mxCell>
        <mxCell id="HWUxS8e8iwOzTYImD1xA-46" value="" style="group" vertex="1" connectable="0" parent="1">
          <mxGeometry x="450" y="720" width="290" height="160" as="geometry" />
        </mxCell>
        <mxCell id="HWUxS8e8iwOzTYImD1xA-18" value="ĐƠN ĐẶT HÀNG" style="shape=ext;margin=3;double=1;whiteSpace=wrap;html=1;align=center;" vertex="1" parent="HWUxS8e8iwOzTYImD1xA-46">
          <mxGeometry x="40" y="100" width="110" height="60" as="geometry" />
        </mxCell>
        <mxCell id="HWUxS8e8iwOzTYImD1xA-21" value="LƯỢNG ĐẶT HÀNG" style="ellipse;whiteSpace=wrap;html=1;" vertex="1" parent="HWUxS8e8iwOzTYImD1xA-46">
          <mxGeometry x="220" width="120" height="80" as="geometry" />
        </mxCell>
        <mxCell id="HWUxS8e8iwOzTYImD1xA-24" value="" style="endArrow=none;html=1;rounded=0;entryX=0;entryY=0.5;entryDx=0;entryDy=0;exitX=1;exitY=0.5;exitDx=0;exitDy=0;" edge="1" parent="HWUxS8e8iwOzTYImD1xA-46" source="HWUxS8e8iwOzTYImD1xA-18" target="HWUxS8e8iwOzTYImD1xA-21">
          <mxGeometry width="50" height="50" relative="1" as="geometry">
            <mxPoint x="40" y="150" as="sourcePoint" />
            <mxPoint x="90" y="100" as="targetPoint" />
          </mxGeometry>
        </mxCell>
        <mxCell id="HWUxS8e8iwOzTYImD1xA-48" value="" style="group" vertex="1" connectable="0" parent="1">
          <mxGeometry x="-690" y="909" width="450" height="260" as="geometry" />
        </mxCell>
        <mxCell id="HWUxS8e8iwOzTYImD1xA-53" value="" style="group" vertex="1" connectable="0" parent="HWUxS8e8iwOzTYImD1xA-48">
          <mxGeometry x="50" y="21" width="390" height="80" as="geometry" />
        </mxCell>
        <mxCell id="HWUxS8e8iwOzTYImD1xA-4" value="ĐỊA CHỈ KH" style="ellipse;whiteSpace=wrap;html=1;" vertex="1" parent="HWUxS8e8iwOzTYImD1xA-53">
          <mxGeometry x="130" width="120" height="80" as="geometry" />
        </mxCell>
        <mxCell id="HWUxS8e8iwOzTYImD1xA-5" value="SĐT" style="ellipse;whiteSpace=wrap;html=1;" vertex="1" parent="HWUxS8e8iwOzTYImD1xA-53">
          <mxGeometry x="270" width="120" height="80" as="geometry" />
        </mxCell>
        <mxCell id="HWUxS8e8iwOzTYImD1xA-7" value="TÊN KH" style="ellipse;whiteSpace=wrap;html=1;" vertex="1" parent="HWUxS8e8iwOzTYImD1xA-53">
          <mxGeometry width="120" height="80" as="geometry" />
        </mxCell>
        <mxCell id="HWUxS8e8iwOzTYImD1xA-3" value="KHÁCH HÀNG" style="rounded=0;whiteSpace=wrap;html=1;" vertex="1" parent="1">
          <mxGeometry x="-540" y="820" width="120" height="60" as="geometry" />
        </mxCell>
        <mxCell id="HWUxS8e8iwOzTYImD1xA-9" value="" style="endArrow=none;html=1;rounded=0;entryX=0.5;entryY=0;entryDx=0;entryDy=0;exitX=0.5;exitY=1;exitDx=0;exitDy=0;" edge="1" parent="1" source="HWUxS8e8iwOzTYImD1xA-3" target="HWUxS8e8iwOzTYImD1xA-8">
          <mxGeometry width="50" height="50" relative="1" as="geometry">
            <mxPoint x="-475" y="820" as="sourcePoint" />
            <mxPoint x="-630" y="1060" as="targetPoint" />
          </mxGeometry>
        </mxCell>
        <mxCell id="HWUxS8e8iwOzTYImD1xA-10" value="" style="endArrow=none;html=1;rounded=0;entryX=0.5;entryY=0;entryDx=0;entryDy=0;exitX=0.5;exitY=1;exitDx=0;exitDy=0;" edge="1" parent="1" source="HWUxS8e8iwOzTYImD1xA-3" target="HWUxS8e8iwOzTYImD1xA-7">
          <mxGeometry width="50" height="50" relative="1" as="geometry">
            <mxPoint x="-560" y="1020" as="sourcePoint" />
            <mxPoint x="-510" y="970" as="targetPoint" />
          </mxGeometry>
        </mxCell>
        <mxCell id="HWUxS8e8iwOzTYImD1xA-11" value="" style="endArrow=none;html=1;rounded=0;entryX=0.5;entryY=0;entryDx=0;entryDy=0;exitX=0.5;exitY=1;exitDx=0;exitDy=0;" edge="1" parent="1" source="HWUxS8e8iwOzTYImD1xA-3" target="HWUxS8e8iwOzTYImD1xA-4">
          <mxGeometry width="50" height="50" relative="1" as="geometry">
            <mxPoint x="-470" y="1020" as="sourcePoint" />
            <mxPoint x="-420" y="970" as="targetPoint" />
            <Array as="points" />
          </mxGeometry>
        </mxCell>
        <mxCell id="HWUxS8e8iwOzTYImD1xA-8" value="MÃ KH" style="ellipse;whiteSpace=wrap;html=1;align=center;fontStyle=4;" vertex="1" parent="1">
          <mxGeometry x="-780" y="920" width="120" height="80" as="geometry" />
        </mxCell>
        <mxCell id="HWUxS8e8iwOzTYImD1xA-50" value="" style="endArrow=none;html=1;rounded=0;exitX=0.5;exitY=0;exitDx=0;exitDy=0;entryX=0.5;entryY=1;entryDx=0;entryDy=0;" edge="1" parent="1" source="HWUxS8e8iwOzTYImD1xA-5" target="HWUxS8e8iwOzTYImD1xA-3">
          <mxGeometry width="50" height="50" relative="1" as="geometry">
            <mxPoint x="-330" y="910" as="sourcePoint" />
            <mxPoint x="-480" y="880" as="targetPoint" />
          </mxGeometry>
        </mxCell>
        <mxCell id="HWUxS8e8iwOzTYImD1xA-51" value="" style="endArrow=none;html=1;rounded=0;entryX=0.5;entryY=1;entryDx=0;entryDy=0;exitX=0.5;exitY=0;exitDx=0;exitDy=0;" edge="1" parent="1" source="HWUxS8e8iwOzTYImD1xA-45" target="VO6tGdwxOZ5J0H8WTw2k-11">
          <mxGeometry width="50" height="50" relative="1" as="geometry">
            <mxPoint x="-520" y="650" as="sourcePoint" />
            <mxPoint x="-470" y="600" as="targetPoint" />
          </mxGeometry>
        </mxCell>
        <mxCell id="HWUxS8e8iwOzTYImD1xA-52" value="" style="endArrow=none;html=1;rounded=0;entryX=0.5;entryY=1;entryDx=0;entryDy=0;exitX=0.5;exitY=0;exitDx=0;exitDy=0;" edge="1" parent="1" source="HWUxS8e8iwOzTYImD1xA-3" target="HWUxS8e8iwOzTYImD1xA-45">
          <mxGeometry width="50" height="50" relative="1" as="geometry">
            <mxPoint x="-480" y="800" as="sourcePoint" />
            <mxPoint x="-430" y="750" as="targetPoint" />
          </mxGeometry>
        </mxCell>
        <mxCell id="HWUxS8e8iwOzTYImD1xA-54" value="M" style="text;html=1;align=center;verticalAlign=middle;resizable=0;points=[];autosize=1;strokeColor=none;fillColor=none;" vertex="1" parent="1">
          <mxGeometry x="-485" y="568" width="30" height="30" as="geometry" />
        </mxCell>
        <mxCell id="HWUxS8e8iwOzTYImD1xA-55" value="N" style="text;html=1;align=center;verticalAlign=middle;resizable=0;points=[];autosize=1;strokeColor=none;fillColor=none;" vertex="1" parent="1">
          <mxGeometry x="-485" y="798" width="30" height="30" as="geometry" />
        </mxCell>
        <mxCell id="HWUxS8e8iwOzTYImD1xA-56" value="" style="endArrow=none;html=1;rounded=0;entryX=0.471;entryY=0.968;entryDx=0;entryDy=0;entryPerimeter=0;exitX=0.076;exitY=0.714;exitDx=0;exitDy=0;exitPerimeter=0;" edge="1" parent="1" source="HWUxS8e8iwOzTYImD1xA-55" target="HWUxS8e8iwOzTYImD1xA-45">
          <mxGeometry width="50" height="50" relative="1" as="geometry">
            <mxPoint x="-535" y="810" as="sourcePoint" />
            <mxPoint x="-485" y="760" as="targetPoint" />
          </mxGeometry>
        </mxCell>
        <mxCell id="HWUxS8e8iwOzTYImD1xA-57" value="" style="endArrow=none;html=1;rounded=0;entryX=0.075;entryY=0.083;entryDx=0;entryDy=0;entryPerimeter=0;exitX=0.458;exitY=0.049;exitDx=0;exitDy=0;exitPerimeter=0;" edge="1" parent="1" source="HWUxS8e8iwOzTYImD1xA-45" target="HWUxS8e8iwOzTYImD1xA-54">
          <mxGeometry width="50" height="50" relative="1" as="geometry">
            <mxPoint x="-550" y="650" as="sourcePoint" />
            <mxPoint x="-500" y="600" as="targetPoint" />
          </mxGeometry>
        </mxCell>
        <mxCell id="HWUxS8e8iwOzTYImD1xA-58" value="ĐẶT" style="rhombus;whiteSpace=wrap;html=1;" vertex="1" parent="1">
          <mxGeometry x="-200" y="810" width="80" height="80" as="geometry" />
        </mxCell>
        <mxCell id="HWUxS8e8iwOzTYImD1xA-59" value="" style="endArrow=none;html=1;rounded=0;exitX=1;exitY=0.5;exitDx=0;exitDy=0;entryX=0;entryY=0.5;entryDx=0;entryDy=0;" edge="1" parent="1" source="HWUxS8e8iwOzTYImD1xA-3" target="HWUxS8e8iwOzTYImD1xA-58">
          <mxGeometry width="50" height="50" relative="1" as="geometry">
            <mxPoint x="-310" y="880" as="sourcePoint" />
            <mxPoint x="-260" y="830" as="targetPoint" />
          </mxGeometry>
        </mxCell>
        <mxCell id="HWUxS8e8iwOzTYImD1xA-60" value="" style="group" vertex="1" connectable="0" parent="1">
          <mxGeometry x="-105" y="600" width="300" height="280" as="geometry" />
        </mxCell>
        <mxCell id="HWUxS8e8iwOzTYImD1xA-13" value="HÀNG" style="rounded=0;whiteSpace=wrap;html=1;" vertex="1" parent="HWUxS8e8iwOzTYImD1xA-60">
          <mxGeometry x="110" y="220" width="120" height="60" as="geometry" />
        </mxCell>
        <mxCell id="HWUxS8e8iwOzTYImD1xA-14" value="MÃ HÀNG" style="ellipse;whiteSpace=wrap;html=1;align=center;fontStyle=4;" vertex="1" parent="HWUxS8e8iwOzTYImD1xA-60">
          <mxGeometry y="100" width="110" height="80" as="geometry" />
        </mxCell>
        <mxCell id="HWUxS8e8iwOzTYImD1xA-16" value="" style="endArrow=none;html=1;rounded=0;entryX=0.5;entryY=1;entryDx=0;entryDy=0;exitX=0.5;exitY=0;exitDx=0;exitDy=0;" edge="1" parent="HWUxS8e8iwOzTYImD1xA-60" source="HWUxS8e8iwOzTYImD1xA-13" target="HWUxS8e8iwOzTYImD1xA-14">
          <mxGeometry width="50" height="50" relative="1" as="geometry">
            <mxPoint y="260" as="sourcePoint" />
            <mxPoint x="50" y="210" as="targetPoint" />
          </mxGeometry>
        </mxCell>
        <mxCell id="HWUxS8e8iwOzTYImD1xA-19" value="SỐ LƯỢNG TRONG KHO" style="ellipse;whiteSpace=wrap;html=1;" vertex="1" parent="HWUxS8e8iwOzTYImD1xA-60">
          <mxGeometry x="110" y="40" width="120" height="80" as="geometry" />
        </mxCell>
        <mxCell id="HWUxS8e8iwOzTYImD1xA-20" value="" style="endArrow=none;html=1;rounded=0;entryX=0.5;entryY=1;entryDx=0;entryDy=0;exitX=0.5;exitY=0;exitDx=0;exitDy=0;" edge="1" parent="HWUxS8e8iwOzTYImD1xA-60" source="HWUxS8e8iwOzTYImD1xA-13" target="HWUxS8e8iwOzTYImD1xA-19">
          <mxGeometry width="50" height="50" relative="1" as="geometry">
            <mxPoint x="110" y="150" as="sourcePoint" />
            <mxPoint x="160" y="100" as="targetPoint" />
          </mxGeometry>
        </mxCell>
        <mxCell id="HWUxS8e8iwOzTYImD1xA-61" value="" style="endArrow=none;html=1;rounded=0;entryX=0;entryY=0.5;entryDx=0;entryDy=0;exitX=1;exitY=0.5;exitDx=0;exitDy=0;" edge="1" parent="1" source="HWUxS8e8iwOzTYImD1xA-58" target="HWUxS8e8iwOzTYImD1xA-13">
          <mxGeometry width="50" height="50" relative="1" as="geometry">
            <mxPoint x="-80" y="910" as="sourcePoint" />
            <mxPoint x="-30" y="860" as="targetPoint" />
          </mxGeometry>
        </mxCell>
        <mxCell id="HWUxS8e8iwOzTYImD1xA-15" value="TÊN HÀNG" style="ellipse;whiteSpace=wrap;html=1;" vertex="1" parent="1">
          <mxGeometry x="130" y="700" width="120" height="80" as="geometry" />
        </mxCell>
        <mxCell id="HWUxS8e8iwOzTYImD1xA-17" value="" style="endArrow=none;html=1;rounded=0;exitX=0.5;exitY=0;exitDx=0;exitDy=0;entryX=0.5;entryY=1;entryDx=0;entryDy=0;" edge="1" parent="1" source="HWUxS8e8iwOzTYImD1xA-13" target="HWUxS8e8iwOzTYImD1xA-15">
          <mxGeometry width="50" height="50" relative="1" as="geometry">
            <mxPoint x="180" y="820" as="sourcePoint" />
            <mxPoint x="230" y="770" as="targetPoint" />
          </mxGeometry>
        </mxCell>
        <mxCell id="HWUxS8e8iwOzTYImD1xA-22" value="NGÀY ĐẶT HÀNG" style="ellipse;whiteSpace=wrap;html=1;" vertex="1" parent="1">
          <mxGeometry x="670" y="840" width="120" height="80" as="geometry" />
        </mxCell>
        <mxCell id="HWUxS8e8iwOzTYImD1xA-23" value="" style="endArrow=none;html=1;rounded=0;entryX=0;entryY=0.5;entryDx=0;entryDy=0;exitX=1;exitY=0.5;exitDx=0;exitDy=0;" edge="1" parent="1" source="HWUxS8e8iwOzTYImD1xA-18" target="HWUxS8e8iwOzTYImD1xA-22">
          <mxGeometry width="50" height="50" relative="1" as="geometry">
            <mxPoint x="560" y="820" as="sourcePoint" />
            <mxPoint x="610" y="770" as="targetPoint" />
          </mxGeometry>
        </mxCell>
        <mxCell id="HWUxS8e8iwOzTYImD1xA-63" value="" style="endArrow=none;html=1;rounded=0;entryX=0;entryY=0.5;entryDx=0;entryDy=0;exitX=1;exitY=0.5;exitDx=0;exitDy=0;" edge="1" parent="1" source="HWUxS8e8iwOzTYImD1xA-13" target="HWUxS8e8iwOzTYImD1xA-70">
          <mxGeometry width="50" height="50" relative="1" as="geometry">
            <mxPoint x="220" y="870" as="sourcePoint" />
            <mxPoint x="332.9999999999998" y="850" as="targetPoint" />
          </mxGeometry>
        </mxCell>
        <mxCell id="HWUxS8e8iwOzTYImD1xA-64" value="" style="endArrow=none;html=1;rounded=0;entryX=0;entryY=0.5;entryDx=0;entryDy=0;exitX=1;exitY=0.5;exitDx=0;exitDy=0;" edge="1" parent="1" target="HWUxS8e8iwOzTYImD1xA-18">
          <mxGeometry width="50" height="50" relative="1" as="geometry">
            <mxPoint x="412.9999999999998" y="850" as="sourcePoint" />
            <mxPoint x="470" y="850" as="targetPoint" />
          </mxGeometry>
        </mxCell>
        <mxCell id="HWUxS8e8iwOzTYImD1xA-65" value="M" style="text;html=1;align=center;verticalAlign=middle;resizable=0;points=[];autosize=1;strokeColor=none;fillColor=none;" vertex="1" parent="1">
          <mxGeometry x="-425" y="818" width="30" height="30" as="geometry" />
        </mxCell>
        <mxCell id="HWUxS8e8iwOzTYImD1xA-66" value="N" style="text;html=1;align=center;verticalAlign=middle;resizable=0;points=[];autosize=1;strokeColor=none;fillColor=none;" vertex="1" parent="1">
          <mxGeometry x="-25" y="828" width="30" height="30" as="geometry" />
        </mxCell>
        <mxCell id="HWUxS8e8iwOzTYImD1xA-67" value="1" style="text;html=1;align=center;verticalAlign=middle;resizable=0;points=[];autosize=1;strokeColor=none;fillColor=none;" vertex="1" parent="1">
          <mxGeometry x="115" y="828" width="30" height="30" as="geometry" />
        </mxCell>
        <mxCell id="HWUxS8e8iwOzTYImD1xA-68" value="1" style="text;html=1;align=center;verticalAlign=middle;resizable=0;points=[];autosize=1;strokeColor=none;fillColor=none;" vertex="1" parent="1">
          <mxGeometry x="465" y="828" width="30" height="30" as="geometry" />
        </mxCell>
        <mxCell id="HWUxS8e8iwOzTYImD1xA-69" value="" style="endArrow=none;html=1;rounded=0;entryX=1.016;entryY=0.88;entryDx=0;entryDy=0;entryPerimeter=0;exitX=0.952;exitY=0.547;exitDx=0;exitDy=0;exitPerimeter=0;" edge="1" parent="1" source="HWUxS8e8iwOzTYImD1xA-58" target="HWUxS8e8iwOzTYImD1xA-66">
          <mxGeometry width="50" height="50" relative="1" as="geometry">
            <mxPoint x="-80" y="920" as="sourcePoint" />
            <mxPoint x="-30" y="870" as="targetPoint" />
          </mxGeometry>
        </mxCell>
        <mxCell id="HWUxS8e8iwOzTYImD1xA-70" value="CÓ" style="shape=rhombus;double=1;perimeter=rhombusPerimeter;whiteSpace=wrap;html=1;align=center;" vertex="1" parent="1">
          <mxGeometry x="334" y="820" width="80" height="60" as="geometry" />
        </mxCell>
        <mxCell id="HWUxS8e8iwOzTYImD1xA-72" value="" style="endArrow=none;html=1;rounded=0;entryX=0.5;entryY=1;entryDx=0;entryDy=0;exitX=0.466;exitY=0.024;exitDx=0;exitDy=0;exitPerimeter=0;" edge="1" parent="1" source="HWUxS8e8iwOzTYImD1xA-34" target="VO6tGdwxOZ5J0H8WTw2k-1">
          <mxGeometry width="50" height="50" relative="1" as="geometry">
            <mxPoint x="-460" y="320" as="sourcePoint" />
            <mxPoint x="-460" y="250" as="targetPoint" />
          </mxGeometry>
        </mxCell>
        <mxCell id="HWUxS8e8iwOzTYImD1xA-73" value="" style="endArrow=none;html=1;rounded=0;exitX=1.002;exitY=0.569;exitDx=0;exitDy=0;exitPerimeter=0;entryX=0.035;entryY=0.551;entryDx=0;entryDy=0;entryPerimeter=0;" edge="1" parent="1" source="HWUxS8e8iwOzTYImD1xA-3" target="HWUxS8e8iwOzTYImD1xA-58">
          <mxGeometry width="50" height="50" relative="1" as="geometry">
            <mxPoint x="-360" y="910" as="sourcePoint" />
            <mxPoint x="-310" y="860" as="targetPoint" />
          </mxGeometry>
        </mxCell>
      </root>
    </mxGraphModel>
  </diagram>
</mxfile>
